<?xml version="1.0" standalone="no"?>
<!DOCTYPE svg PUBLIC "-//W3C//DTD SVG 20010904//EN"
 "http://www.w3.org/TR/2001/REC-SVG-20010904/DTD/svg10.dtd">
<svg version="1.0" xmlns="http://www.w3.org/2000/svg"
 width="512.000000pt" height="512.000000pt" viewBox="0 0 512.000000 512.000000"
 preserveAspectRatio="xMidYMid meet">
<metadata>
Created by potrace 1.14, written by Peter Selinger 2001-2017
</metadata>
<g transform="translate(0.000000,512.000000) scale(0.100000,-0.100000)"
fill="#000000" stroke="none">
<path d="M3774 4856 c-22 -6 -49 -18 -61 -26 -30 -22 -118 -143 -174 -241 -40
-69 -77 -112 -187 -221 -251 -246 -419 -448 -571 -685 -96 -149 -98 -152 -118
-149 -22 4 -115 -18 -213 -48 -82 -26 -104 -31 -230 -46 -141 -17 -170 -19
-294 -20 -109 -2 -120 -3 -141 -24 -27 -28 -23 -71 8 -88 36 -19 297 -10 477
16 107 16 165 28 233 51 120 39 127 39 127 11 0 -30 29 -49 67 -44 23 3 37 21
90 116 157 282 316 484 617 789 152 153 189 198 240 283 77 127 138 205 165
213 32 8 57 -20 95 -108 l35 -80 -51 -5 c-72 -8 -97 -48 -62 -98 14 -20 23
-22 112 -22 53 0 128 -7 165 -15 69 -14 180 -63 214 -93 41 -38 183 -139 262
-188 l85 -52 1 -79 c1 -105 17 -135 109 -208 l30 -23 -24 -35 c-30 -44 -37
-48 -189 -112 -70 -29 -198 -88 -285 -129 -87 -42 -160 -76 -163 -76 -2 0 -21
-11 -43 -25 -32 -20 -40 -31 -40 -54 0 -16 7 -37 16 -45 17 -18 69 -22 79 -6
3 6 12 10 19 10 11 0 11 -7 0 -39 -7 -22 -15 -50 -18 -63 -3 -12 -14 -63 -25
-113 -22 -100 -29 -155 -36 -265 -22 -380 -117 -682 -259 -834 -28 -30 -96
-84 -151 -122 -55 -37 -102 -71 -105 -74 -3 -3 -16 -13 -30 -21 -14 -9 -64
-51 -113 -93 -98 -86 -122 -126 -180 -292 -69 -198 -106 -414 -104 -595 2
-100 4 -109 39 -180 21 -43 62 -101 97 -139 34 -36 61 -68 61 -73 0 -30 -162
-29 -213 1 -38 22 -96 96 -136 173 -40 78 -46 117 -56 379 -3 85 -8 182 -10
215 -3 33 -7 98 -10 145 -22 365 -24 388 -41 479 -16 91 -39 156 -62 184 -30
35 -102 12 -102 -32 0 -10 7 -38 15 -62 9 -24 22 -69 29 -102 18 -76 14 -77
-126 -49 -140 29 -255 79 -400 175 -64 42 -168 102 -230 132 -130 64 -175 87
-312 158 -91 47 -105 52 -165 52 -114 0 -188 -55 -260 -195 -47 -92 -64 -143
-91 -285 -28 -144 -54 -239 -99 -355 -34 -88 -41 -99 -119 -175 -125 -120
-221 -273 -275 -440 -44 -135 -41 -221 13 -326 26 -49 28 -58 16 -75 -12 -15
-27 -18 -95 -18 -46 0 -91 6 -105 13 -54 29 -74 135 -53 286 5 33 10 76 13 95
2 19 6 46 9 60 2 14 7 50 10 80 10 88 23 117 91 193 134 151 164 260 140 503
-18 182 -93 393 -187 525 -30 43 -58 126 -63 185 -5 63 -21 86 -60 86 -26 0
-121 -53 -143 -81 -38 -45 14 -108 75 -90 9 3 21 -18 36 -56 12 -33 35 -80 51
-105 107 -164 168 -357 178 -560 7 -143 -22 -220 -127 -338 -62 -69 -91 -120
-100 -172 -26 -158 -49 -361 -50 -440 -1 -113 20 -183 73 -237 49 -51 91 -65
201 -68 135 -4 190 22 223 105 20 49 15 85 -21 160 -50 102 -42 189 34 350 50
106 106 185 183 259 36 35 99 96 140 135 92 88 136 147 192 256 24 47 50 96
59 110 107 164 159 237 212 292 93 97 128 99 312 12 42 -19 78 -39 81 -45 6
-9 -41 -167 -70 -234 -7 -16 -23 -55 -35 -85 -40 -99 -120 -254 -148 -286 -15
-16 -52 -46 -82 -66 -80 -53 -153 -121 -206 -191 -108 -142 -191 -391 -162
-481 6 -17 21 -45 34 -63 25 -33 30 -68 15 -92 -6 -10 -32 -15 -83 -16 -160
-4 -189 28 -190 212 0 141 47 267 156 418 94 129 142 238 122 276 -30 60 -88
50 -116 -19 -30 -72 -67 -137 -126 -219 -108 -150 -155 -291 -155 -464 -1
-173 32 -247 131 -296 50 -25 64 -27 165 -27 124 1 158 12 197 66 19 27 23 46
23 103 0 62 -4 76 -32 119 -18 27 -31 52 -29 55 3 4 7 25 11 48 12 84 58 196
111 273 56 82 111 136 187 187 100 67 146 118 199 224 82 166 104 218 159 374
21 61 43 109 47 108 5 -1 36 -19 68 -40 159 -104 329 -165 499 -180 33 -3 63
-8 67 -11 3 -4 9 -59 13 -122 4 -63 8 -139 10 -169 2 -29 6 -97 9 -150 4 -53
9 -145 11 -206 14 -300 23 -345 93 -463 58 -96 115 -157 177 -188 96 -46 290
-39 332 14 30 37 45 85 39 127 -5 33 -19 55 -69 107 -34 36 -76 89 -92 119
-27 49 -30 64 -31 149 -3 201 69 519 155 689 12 23 57 69 109 114 117 97 207
160 188 129 -4 -7 -9 -50 -21 -179 -3 -32 -8 -74 -10 -93 -15 -123 -22 -527
-11 -598 21 -133 81 -250 177 -347 64 -66 75 -90 53 -120 -12 -17 -26 -19 -87
-19 -47 1 -84 7 -105 18 -81 42 -200 271 -233 449 -6 34 -12 131 -14 216 -3
162 -3 164 -54 178 -19 4 -30 0 -46 -19 -21 -24 -22 -34 -20 -169 3 -211 20
-300 82 -449 46 -109 143 -258 189 -289 58 -40 124 -57 211 -56 94 2 141 22
176 73 59 85 45 156 -49 252 -80 83 -127 162 -149 252 -16 62 -17 103 -12 317
4 135 11 287 16 336 5 50 12 118 16 152 3 34 7 70 9 80 2 10 7 41 10 68 6 42
15 59 55 100 82 86 140 185 194 330 27 71 62 195 71 250 3 17 8 41 10 55 6 28
15 87 21 140 2 19 7 79 10 134 11 213 76 490 133 564 27 36 170 110 332 173
136 52 203 112 235 210 10 28 27 56 40 65 53 35 70 126 36 199 -24 54 -69 90
-170 137 -112 51 -235 126 -354 216 l-99 75 9 81 c13 129 10 171 -13 202 -49
67 -115 88 -187 60 -89 -34 -131 -101 -89 -139 26 -24 56 -21 104 9 49 31 74
23 72 -22 -5 -83 -10 -124 -15 -124 -4 0 -26 7 -50 16 -24 8 -62 18 -84 21
-22 3 -43 8 -46 11 -4 4 -14 32 -24 62 -23 72 -67 159 -100 198 -39 47 -106
66 -171 48z m1067 -859 c42 -28 60 -71 38 -93 -32 -32 -99 32 -99 95 0 27 19
27 61 -2z m-3239 -1890 c16 -6 28 -15 28 -18 0 -4 -15 -16 -32 -29 -56 -38
-173 -192 -296 -390 l-22 -35 6 40 c26 185 79 326 150 405 47 52 94 59 166 27z"/>
<path d="M888 4485 c-1 -1 -28 -6 -58 -9 -245 -29 -460 -159 -585 -355 -56
-89 -82 -147 -109 -249 -71 -264 10 -525 208 -671 68 -50 106 -70 201 -102
l80 -27 -3 -33 c-2 -19 -15 -58 -29 -87 -20 -42 -41 -65 -98 -107 -121 -90
-147 -134 -103 -175 31 -29 51 -25 100 18 24 20 66 54 95 74 77 57 125 128
147 218 10 41 11 59 7 143 0 15 -11 36 -23 48 -71 65 -86 84 -97 121 -7 22
-11 63 -10 91 8 158 140 256 289 215 37 -11 127 -66 134 -83 2 -6 -23 -10 -63
-11 -101 -1 -143 -13 -158 -47 -22 -53 18 -96 75 -82 61 15 105 16 155 1 64
-19 65 -20 65 -149 0 -104 11 -138 62 -180 61 -52 145 -46 250 18 105 64 183
160 233 285 89 228 38 592 -116 820 -45 67 -156 170 -228 213 -87 51 -203 86
-307 93 -48 3 -92 7 -99 9 -6 2 -13 2 -15 0z m232 -150 c190 -59 341 -214 405
-419 56 -175 66 -374 25 -495 -40 -121 -126 -224 -225 -270 -84 -40 -93 -29
-99 115 -5 117 -7 131 -32 206 -16 48 -68 126 -108 161 -72 64 -183 101 -276
94 -146 -12 -264 -106 -305 -245 -18 -60 -21 -165 -6 -204 14 -38 -4 -37 -60
4 -69 50 -105 88 -143 151 -105 176 -79 433 64 642 99 144 249 237 445 275 66
12 254 4 315 -15z"/>
<path d="M3762 4178 c-106 -101 -174 -137 -274 -145 -87 -7 -113 -27 -105 -78
6 -35 53 -115 68 -115 16 0 9 -21 -20 -64 -44 -63 -73 -159 -72 -237 1 -120
63 -260 142 -318 l32 -24 -24 -13 c-39 -20 -143 -44 -191 -44 -24 0 -52 -6
-62 -13 -55 -40 -32 -240 40 -347 39 -56 33 -101 -23 -174 -153 -202 -182
-473 -74 -691 48 -96 132 -195 166 -195 22 0 54 22 56 38 0 4 2 15 4 25 3 16
-23 52 -73 106 -50 53 -99 214 -96 316 4 131 41 233 119 335 85 111 89 186 19
314 -36 66 -58 146 -45 159 5 5 26 11 47 14 102 12 198 57 248 115 52 60 47
91 -19 136 -174 118 -196 347 -47 484 65 59 64 101 -1 134 l-32 17 40 12 c90
26 160 71 252 159 99 95 111 118 73 156 -34 34 -56 24 -148 -62z"/>
<path d="M4162 4204 c-27 -19 -29 -64 -4 -87 9 -8 38 -18 64 -22 39 -6 49 -4
67 14 38 38 21 84 -37 101 -50 13 -64 13 -90 -6z"/>
<path d="M505 2632 c-41 -5 -215 -89 -216 -104 0 -7 -2 -21 -4 -31 -4 -23 28
-57 55 -57 11 0 52 15 92 34 40 19 89 37 108 40 34 5 70 36 70 60 0 21 -29 54
-52 57 -13 2 -36 3 -53 1z"/>
</g>
</svg>
